<svg width="182" height="160" viewBox="0 0 182 160" fill="none" xmlns="http://www.w3.org/2000/svg">
<path d="M142.793 92.1487C142.998 93.3242 143.23 94.4928 143.401 95.675C144.372 102.407 141.433 107.211 135.945 110.751C126.918 116.573 111.753 115.678 103.546 103.186C99.5477 97.1033 97.5795 90.3445 96.9371 83.1552C96.3015 76.0957 96.9371 69.1934 99.3836 62.5029C99.7937 61.3822 100.135 60.1794 100.812 59.2294C102.145 57.3706 101.864 55.7715 100.949 53.7759C96.1717 43.4225 94.716 32.4813 95.5156 21.1642C95.9667 14.7198 97.0806 8.41883 99.0214 2.26142C99.7937 -0.19198 100.211 -0.396999 102.568 0.457248C120.439 6.91536 132.768 19.2028 140.312 36.4791C140.811 37.6272 141.413 38.0646 142.629 38.2628C149.142 39.3289 154.759 42.3974 159.892 46.3952C168.878 53.3932 175.822 61.963 179.43 72.9247C181.904 80.4353 181.883 87.8296 177.612 94.7935C174.885 99.2355 171.065 102.53 166.227 104.464C160.035 106.937 154.78 104.928 150.119 100.671C147.502 98.2788 145.328 95.5042 143.449 92.4972C143.235 92.1829 143.021 92.0713 142.807 92.1624L142.793 92.1487Z" fill="#333333"/>
<path d="M142.793 92.1487C142.485 91.9574 142.267 91.4653 142.561 91.4243C143.182 91.3355 143.394 91.9095 143.428 92.4836C143.217 92.3742 143.005 92.2581 142.786 92.1487H142.793Z" fill="#39646D"/>
<path d="M125.913 57.0289C127.772 64.2798 131.503 70.6285 134.497 77.3053C137.408 83.8113 139.82 90.6179 140.531 97.8209C140.804 100.596 139.725 103.042 137.845 105.133C130.014 113.853 115.362 113.068 107.632 103.507C103.587 98.5043 101.407 92.6955 100.375 86.4355C98.9327 77.6607 99.5682 69.1046 103.32 60.9038C103.956 59.5233 104.762 59.1475 106.197 59.2226C110.913 59.4755 115.628 59.5233 120.323 58.7443C122.237 58.4231 124.048 57.808 125.913 57.0358V57.0289Z" fill="#5BC6E0"/>
<path d="M166.692 57.2886C166.91 57.5278 167.129 57.7738 167.354 58.013C167.71 58.4572 168.031 58.9356 168.468 59.3114C172.671 64.3139 175.589 69.9861 177.236 76.3075C177.366 76.7996 177.482 77.2916 177.605 77.7837C178.234 80.859 178.33 83.9343 177.599 87.0096C175.952 93.5428 171.954 98.1899 166.035 101.211C161.942 103.295 157.971 102.741 154.302 100.103C150.44 97.3357 147.591 93.6317 145.199 89.6065C140.094 81.0093 135.002 72.3917 131.155 63.1248C130.061 60.4937 129.228 57.7806 128.606 55.006C128.476 54.4388 128.38 53.9126 128.756 53.3796C131.565 49.368 134.462 45.4453 138.337 42.3495C139.759 41.2151 141.228 40.9896 142.957 41.3723C150.707 43.1081 156.953 47.4408 162.639 52.744C163.589 53.6256 164.614 54.4593 165.318 55.5801C165.509 55.8193 165.516 56.0516 165.304 56.2772C164.341 56.407 163.896 55.6279 163.363 55.088C160.165 51.8556 156.495 49.3065 152.381 47.3793C149.552 46.0535 146.552 45.4863 143.463 45.2745C142.889 45.2335 142.328 45.377 141.789 45.5546C140.135 46.1082 138.857 47.557 138.918 48.8008C138.973 49.9694 140.285 51.1107 142.069 51.507C144.119 51.9649 146.224 52.1153 148.26 52.703C155.238 54.7122 161.156 58.3684 165.837 63.9244C169.432 68.1888 171.161 73.2733 171.878 78.7404C172.002 79.704 172.152 80.6608 172.336 81.6039C172.459 82.2258 172.439 83.1962 173.355 83.1005C174.079 83.0185 174.045 82.1506 174.065 81.5355C174.154 78.9728 174.086 76.4237 173.532 73.8952C172.227 67.9496 169.739 62.5918 165.83 57.9173C165.468 57.4868 165.017 57.0904 165.168 56.4275C166.158 55.8535 166.213 56.9537 166.698 57.2886H166.692Z" fill="#5BC6E0"/>
<path d="M101.27 7.10668C102.555 10.961 103.853 14.8086 105.124 18.6698C107.53 25.9548 110.038 33.2125 112.272 40.5453C113.175 43.4976 114.753 45.828 116.899 47.9192C118.813 49.7849 120.617 51.7599 122.496 53.6597C123.302 54.4798 123.227 54.9377 122.072 55.2657C119.981 55.8603 117.828 56.12 115.683 56.2156C112.73 56.3455 109.771 56.2156 106.812 56.2703C105.801 56.2908 105.295 55.8671 104.851 55.006C99.5134 44.591 97.7844 33.4995 98.5293 21.9227C98.8095 17.549 99.3494 13.2094 100.361 8.93818C100.504 8.33679 100.668 7.74224 100.819 7.14085C100.969 7.12718 101.119 7.11351 101.263 7.09985L101.27 7.10668Z" fill="#B2B2B2"/>
<path d="M120.172 46.7164C116.496 44.181 115.368 40.19 114.09 36.2331C110.858 26.2418 107.53 16.2779 104.236 6.3003C104.044 5.71257 103.86 5.11802 103.525 4.05192C113.154 7.98145 121.088 13.5375 127.41 21.3624C130.642 26.3785 130.888 31.7774 129.439 37.3812C128.496 41.0306 126.644 44.0717 123.337 46.0535C122.38 46.6276 121.396 47.3178 120.172 46.7096V46.7164Z" fill="#CBCBCB"/>
<path d="M120.173 46.7164C124.109 45.9852 126.569 43.4019 128.052 39.9371C130.677 33.807 130.362 27.6906 127.431 21.7041C127.383 21.6084 127.41 21.4785 127.403 21.3692C131.305 25.6404 134.217 30.5541 136.643 35.7752C137.975 38.6387 137.941 38.6387 135.597 40.5863C131.975 43.6001 129.248 47.3861 126.569 51.1927C125.763 52.3408 125.271 52.3203 124.417 51.3498C123.036 49.7712 121.587 48.2609 120.166 46.7232L120.173 46.7164Z" fill="#B2B2B2"/>
<path d="M177.592 87.0096C177.961 83.9343 177.913 80.859 177.599 77.7837C178.596 80.859 178.631 83.9343 177.592 87.0096Z" fill="#3B666F"/>
<path d="M165.291 56.2704C165.291 56.038 165.291 55.8056 165.297 55.5801C165.892 56.0448 166.541 56.4685 166.685 57.2954C166.22 56.9537 165.755 56.6121 165.284 56.2704H165.291Z" fill="#5CC4DA"/>
<path d="M168.462 59.3114C167.826 59.1064 167.416 58.7032 167.348 58.013C167.949 58.2453 168.236 58.751 168.462 59.3114Z" fill="#5CC4DA"/>
<path d="M122.933 101.416C118.218 101.361 115.109 99.0032 112.505 95.8185C106.265 88.1918 104.994 75.1526 109.641 66.4803C111.22 63.5417 113.38 61.348 117.043 61.2796C119.387 61.2386 121.047 62.2159 122.209 64.2319C125.79 70.4645 128.455 77.1071 131.121 83.7497C132.139 86.2851 132.979 88.8752 133.683 91.5131C134.182 93.3856 133.909 95.0736 132.549 96.5839C129.87 99.5567 126.651 101.334 122.94 101.416H122.933Z" fill="#333333"/>
<path d="M149.593 55.8876C159.317 59.2636 166.056 65.6192 168.837 75.6788C170.026 79.9637 170.033 84.3101 166.944 87.9868C163.876 91.6293 159.809 92.8799 155.162 92.3879C154.028 92.2649 153.235 91.5131 152.558 90.611C149.415 86.4628 147.125 81.8089 144.734 77.2233C142.608 73.1366 140.599 68.9883 139.007 64.6624C137.455 60.4527 138.645 57.7054 142.752 55.8398C145.041 55.1154 147.324 55.1837 149.599 55.8808L149.593 55.8876Z" fill="#333333"/>
<path d="M165.291 56.2704C166.767 58.6076 168.653 60.6578 169.965 63.1043C173.163 69.0772 174.995 75.3577 174.496 82.1985C174.441 82.9365 174.236 83.7566 173.341 83.8796C172.289 84.03 172.2 83.0869 172.063 82.4103C171.708 80.695 171.407 78.9728 171.14 77.2438C169.671 67.5464 164.054 60.897 155.716 56.2567C151.657 53.9947 147.317 52.6142 142.677 52.129C140.06 51.8556 138.064 49.9899 138.378 48.384C138.816 46.1561 141.529 44.6799 144.057 44.8713C152.251 45.5 158.532 49.7097 164.142 55.2726C164.505 55.628 164.908 55.9423 165.297 56.2704H165.291Z" fill="#7BEBF8"/>
<path d="M149.593 55.8877C147.31 55.4913 145.034 55.341 142.745 55.8467C145.034 54.8011 147.317 54.8626 149.593 55.8877Z" fill="#4CA0B4"/>
<path d="M116.845 31.012C114.76 31.012 113.482 29.9117 112.662 27.7112C111.993 25.9207 112.806 24.7657 114.138 23.768C114.275 23.6655 114.419 23.5698 114.555 23.4741C116.933 21.7998 116.954 21.7998 118.533 24.301C119.052 25.1143 119.558 25.9412 120.063 26.7613C121.232 28.6474 120.979 29.5358 119.004 30.4926C118.273 30.8411 117.514 31.0393 116.838 31.012H116.845Z" fill="#343434"/>
<path d="M116.858 15.2528C118.095 15.2528 119.127 15.3895 119.4 16.5103C119.674 17.6379 118.792 18.2598 117.904 18.6835C116.639 19.2985 115.314 19.5309 114.049 18.7176C113.455 18.3349 113.345 17.6652 113.68 17.0638C114.412 15.7449 115.669 15.328 116.858 15.2596V15.2528Z" fill="#363636"/>
<path d="M123.515 31.3468C123.535 29.3445 125.182 27.4241 126.665 27.4788C127.793 27.5198 128.087 28.2579 128.059 29.2146C128.018 30.9368 126.269 32.9938 124.881 32.9323C123.761 32.8845 123.528 32.0781 123.515 31.3468Z" fill="#363636"/>
<path d="M126.125 38.4815C124.731 38.4815 122.981 36.8482 123.036 35.6113C123.077 34.6272 123.535 33.8344 124.669 33.7866C125.947 33.7387 127.683 35.5292 127.622 36.8619C127.574 37.8596 126.897 38.3312 126.118 38.4815H126.125Z" fill="#D94992"/>
<path d="M109.218 12.6013C109.15 11.7128 109.307 10.7629 110.578 10.6194C111.637 10.4964 112.669 11.8154 112.703 13.2505C112.724 14.2893 112.56 15.2255 111.254 15.3144C109.983 15.4032 109.238 14.4464 109.218 12.6081V12.6013Z" fill="#D94892"/>
<path d="M109.928 77.6334C109.853 74.9408 110.612 71.4213 112.225 68.0863C112.833 66.8425 113.673 65.7628 114.842 65.0042C116.865 63.6852 118.662 64.1089 119.838 66.2206C122.195 70.444 124.177 74.8451 126.016 79.3145C127.724 83.4628 129.446 87.5973 130.629 91.9437C130.977 93.2285 130.656 94.1101 129.808 95.0122C125.517 99.5909 119.462 99.3996 115.43 94.5611C111.582 89.9414 109.901 84.5972 109.922 77.6402L109.928 77.6334Z" fill="#5BC6E0"/>
<path d="M156.659 89.504C155.778 89.6065 155.101 89.0324 154.513 88.1577C150.597 82.3351 147.481 76.082 144.495 69.7606C143.449 67.5532 142.526 65.2844 141.659 63.0086C140.955 61.1771 141.501 60.0154 143.23 59.0723C144.898 58.1702 146.613 58.3137 148.37 58.7306C157.247 60.8286 165.331 69.9246 166.357 79.007C167.19 86.3808 161.798 89.3058 156.659 89.5108V89.504Z" fill="#5BC6E0"/>
<path d="M163.995 132.015C163.306 133.522 163.97 135.302 165.476 135.991C166.983 136.68 168.763 136.017 169.452 134.51L163.995 132.015ZM151.104 114.511L152.116 111.686L151.104 114.511ZM153.48 101.106L147.887 111.671L153.189 114.478L158.782 103.913L153.48 101.106ZM150.092 117.335C153.685 118.622 158.214 120.865 161.279 123.695C162.8 125.1 163.804 126.505 164.266 127.849C164.697 129.104 164.711 130.449 163.995 132.015L169.452 134.51C170.816 131.525 170.865 128.589 169.941 125.9C169.047 123.298 167.306 121.093 165.349 119.286C161.457 115.694 156.095 113.112 152.116 111.686L150.092 117.335ZM147.887 111.671C146.72 113.874 147.829 116.524 150.092 117.335L152.116 111.686C153.208 112.078 153.774 113.373 153.189 114.478L147.887 111.671Z" fill="#333333"/>
<path d="M80.1973 62.3316C77.0605 79.6284 76.8692 96.8158 82.1792 113.778C82.6439 115.268 82.1382 116.183 80.9149 116.894C78.4342 118.336 75.6664 118.691 72.8918 118.985C66.42 119.669 59.9346 119.334 53.4696 118.924C42.8565 118.247 32.2911 117.079 21.7532 115.643C17.5844 115.076 13.4225 114.495 9.26064 113.88C4.95524 113.245 3.07589 111.29 2.28315 106.957C0.766007 98.6678 0.779674 90.3236 1.37423 81.9656C2.40616 67.4092 4.8664 53.0921 8.83694 39.0414C10.3267 33.7861 12.1583 28.6538 14.475 23.6991C17.7689 16.6601 23.3181 12.8673 30.9243 11.6987C38.2435 10.5779 45.5422 10.8307 52.8546 11.5551C66.2902 12.8878 79.4661 15.6282 92.5258 18.97C94.5692 19.4962 94.8699 20.207 93.9063 22.1205C88.4254 32.9728 84.1405 44.2557 81.489 56.14C81.0379 58.197 80.7167 60.2882 80.1768 62.3316H80.1973Z" fill="#333333"/>
<path d="M80.1973 62.3316C80.416 60.2199 80.7577 58.1423 81.5094 56.14C81.3591 58.2653 81.0857 60.3634 80.1973 62.3316Z" fill="#C4A73B"/>
<path d="M42.624 27.0956C49.827 23.6171 57.5358 21.9906 65.4153 21.1158C73.1241 20.2616 80.8465 20.4324 88.5415 21.4507C90.6942 21.7377 90.6805 21.7172 89.7511 23.6581C84.571 34.3943 80.6893 45.5746 78.065 57.1992C77.532 58.648 77.3816 60.1788 77.1288 61.6823C75.7756 69.5824 74.9009 77.5371 74.9692 85.5602C75.0512 94.9023 76.0285 104.142 78.7484 113.128C79.1106 114.324 78.7552 114.741 77.6618 115.056C74.1765 116.047 70.6091 116.156 67.035 116.245C65.2718 116.293 63.5155 116.252 61.7523 116.252C60.8981 115.951 60.0165 116.204 59.1486 116.108C58.6428 115.917 58.0961 115.978 57.5767 115.889C56.9549 115.691 56.3056 115.753 55.6632 115.725C50.2166 114.57 44.763 113.484 39.3232 112.322C32.8788 110.948 26.4685 109.397 19.9215 108.522C19.1356 108.42 18.3634 108.188 17.5775 108.078C12.6433 107.388 9.9986 104.326 8.86416 99.7066C8.32428 97.4992 8.01675 95.2576 7.92791 92.9683C7.66822 86.1616 7.37436 79.355 7.27868 72.5483C7.18984 66.4729 7.59304 60.4249 8.41996 54.4041C9.34254 48.3971 11.01 42.5609 12.7869 36.7656C14.2357 32.0502 15.8895 27.4031 18.3429 23.0908C19.1835 21.6147 20.0992 20.1796 21.6232 19.2775C23.1745 18.5394 24.5208 19.2775 25.8193 19.9472C27.3432 20.7331 28.628 21.8266 29.6531 23.2549C31.3821 25.6673 32.8582 28.2027 34.061 30.9158C34.6966 32.3441 34.9973 32.4124 36.1659 31.4146C38.1614 29.7198 40.3073 28.2778 42.6377 27.0956H42.624Z" fill="#FCF3BC"/>
<path d="M8.40665 54.4042C8.20163 59.2768 8.00344 64.1426 7.79842 69.0152C7.51823 75.5553 8.07178 82.075 8.20846 88.6014C8.29046 92.6403 8.3383 96.7475 9.65043 100.711C10.8942 104.456 13.1426 106.848 17.1473 107.463C29.1341 109.308 40.8954 112.281 52.8002 114.564C53.8526 114.762 54.7957 115.425 55.9233 115.261C56.4495 115.678 57.1261 115.24 57.666 115.575C58.1375 115.63 58.65 115.527 59.0191 115.944C57.1807 116.279 55.3629 115.91 53.5382 115.848C51.1805 115.773 48.8433 115.377 46.4856 115.432C46.2054 115.432 45.9252 115.438 45.6655 115.295C42.1392 114.94 38.6197 114.591 35.0933 114.236C32.1274 113.901 29.1546 113.655 26.2092 113.217C20.6395 112.425 15.0698 111.618 9.50009 110.839C7.13553 110.504 6.04892 109.63 5.52271 107.292C3.98506 100.411 3.81422 93.4262 4.13541 86.4282C4.57962 76.5941 5.8439 66.8489 7.73008 57.1856C7.9146 56.2494 7.9146 55.2653 8.40665 54.4042Z" fill="#F0CA44"/>
<path d="M29.1611 15.2933C43.1776 12.669 56.8866 14.8627 70.5887 17.1316L70.6229 17.569C69.673 17.6578 68.723 17.7467 67.7731 17.8355C66.7548 17.938 65.7366 18.0474 64.7183 18.1499C55.5813 19.0656 46.8611 21.4644 38.5852 25.4554C37.8198 25.8244 37.3346 25.9748 36.863 24.9839C35.0725 21.1978 32.8105 17.7603 29.1611 15.2864V15.2933Z" fill="#F0CA44"/>
<path d="M42.6243 27.0956C40.2393 28.8929 37.8201 30.6561 35.476 32.5081C34.5261 33.2598 34.3416 32.5901 34.0614 31.9614C32.6946 28.9066 31.1979 25.9406 29.1067 23.2891C27.1727 20.8288 24.774 19.3664 21.6099 19.2775C24.2204 17.1658 26.79 17.2137 29.2571 19.4279C31.8062 21.7241 33.4395 24.6285 34.7653 27.738C35.6332 29.7677 36.2961 30 38.2916 29.0364C39.7131 28.3462 41.0389 27.4441 42.6175 27.1024L42.6243 27.0956Z" fill="#EFCA44"/>
<path d="M45.6655 115.302C50.1144 115.52 54.5702 115.732 59.0191 115.951C59.9212 116.115 60.8643 115.876 61.739 116.258C56.3539 116.429 50.9892 116.176 45.6655 115.302Z" fill="#7C6D33"/>
<path d="M26.2017 113.224C29.1949 113.313 32.1541 113.655 35.0858 114.242C32.0789 114.318 29.1198 113.935 26.2017 113.224Z" fill="#7C6D33"/>
<path d="M77.1219 61.6824C77.0331 60.1037 77.2244 58.5866 78.0582 57.1993C77.8805 58.7232 77.6413 60.2335 77.1219 61.6824Z" fill="#CBC49B"/>
<path d="M51.8501 92.6881C43.0616 91.8544 34.075 91.0001 25.0883 90.1459C21.3569 89.7905 17.6256 89.4215 13.8942 89.0729C12.7734 88.9704 11.557 88.8748 11.68 87.3576C11.803 85.8473 12.9716 85.9293 14.1197 86.0387C26.5507 87.2346 38.9886 88.4169 51.4264 89.5992C51.7066 89.6265 51.9936 89.6333 52.2738 89.6607C53.3604 89.7768 54.4265 90.0365 54.242 91.4375C54.078 92.6744 53.1076 92.859 51.8433 92.6813L51.8501 92.6881Z" fill="#333333"/>
<path d="M50.0667 82.5396C41.9274 81.7742 33.959 81.0293 25.9906 80.2775C21.7535 79.8812 17.5096 79.4848 13.2726 79.0816C12.7669 79.0338 12.2475 78.9996 11.7554 78.8766C10.9353 78.6716 10.457 78.1248 10.6005 77.2569C10.7303 76.4437 11.2292 75.9106 12.1245 75.979C14.161 76.1293 16.2044 76.2797 18.234 76.471C28.5807 77.4415 38.9205 78.4187 49.2671 79.396C49.7728 79.4438 50.2786 79.5395 50.7843 79.5873C51.7752 79.6762 52.4108 80.134 52.3493 81.2001C52.2877 82.3004 51.5497 82.6011 50.5724 82.5464C50.3469 82.5328 50.1214 82.5464 50.0599 82.5464L50.0667 82.5396Z" fill="#333333"/>
<path d="M21.7807 65.0515C30.9998 65.8716 40.2188 66.6848 49.4378 67.5049C49.7795 67.5323 50.1144 67.5869 50.4493 67.6279C51.4334 67.7578 52.0211 68.243 51.9391 69.3159C51.8502 70.4504 51.0711 70.6964 50.1349 70.6212C46.7931 70.3547 43.4581 70.0677 40.1231 69.767C31.2458 68.9674 22.3685 68.1541 13.4911 67.3614C12.6505 67.2862 11.8988 67.129 11.5571 66.2475C11.1881 65.2839 11.8305 64.785 12.507 64.3134C15.6096 64.457 18.6918 64.826 21.7876 65.0378L21.7807 65.0515Z" fill="#333333"/>
<path d="M43.1773 103.479C35.5984 102.584 27.917 101.675 20.2356 100.773C18.206 100.534 16.1626 100.335 14.1329 100.076C13.1352 99.9526 12.3492 99.5084 12.5064 98.3193C12.6636 97.1644 13.4837 96.8773 14.5088 97.0004C24.2199 98.169 33.9241 99.3513 43.642 100.499C44.7833 100.636 45.5282 101.06 45.3573 102.304C45.1865 103.513 44.2571 103.581 43.1773 103.479Z" fill="#343433"/>
<path d="M54.6859 36.3351C56.9685 37.4832 58.882 38.44 60.7887 39.4036C61.3969 39.7111 61.9983 40.0323 62.5929 40.3671C63.4334 40.8387 63.6385 41.5768 63.2284 42.3968C62.7979 43.2648 62.0051 43.4151 61.1919 43.0119C57.6792 41.2692 54.1597 39.5334 50.7017 37.6882C49.4374 37.0185 49.4785 35.7269 50.7564 34.9957C53.7702 33.2803 56.825 31.6333 59.8866 30.0068C60.7067 29.5695 61.6019 29.5763 62.0803 30.5536C62.5245 31.4693 62.1828 32.2006 61.2944 32.6858C59.21 33.827 57.1325 34.9751 54.6791 36.3283L54.6859 36.3351Z" fill="#343433"/>
<path d="M19.4977 42.4857C18.7254 42.5199 18.1445 42.2192 17.9532 41.4401C17.7277 40.5244 18.1445 39.8683 18.9851 39.5334C21.0968 38.6997 23.2017 37.8386 25.3544 37.121C26.7622 36.6495 26.6528 36.2258 25.5936 35.4535C24.5411 34.6813 23.5502 33.8202 22.5593 32.9728C21.8007 32.3304 21.6094 31.5308 22.2586 30.7313C22.8668 29.9727 23.6801 30.0274 24.384 30.5878C26.564 32.3168 28.7509 34.0458 30.8557 35.8704C31.7783 36.67 31.6075 37.9343 30.4935 38.3853C26.9672 39.8068 23.393 41.1052 19.8325 42.4447C19.73 42.4857 19.607 42.4789 19.4977 42.4926V42.4857Z" fill="#343434"/>
<path d="M35.8245 42.8273C35.6195 44.1053 35.9134 45.2124 37.3485 45.3832C38.893 45.5678 39.3714 44.4538 39.5285 43.1349C39.6311 42.2875 39.7267 41.44 39.8839 40.6063C40.0479 39.7179 40.5947 39.1233 41.5309 39.26C42.4057 39.3898 42.9797 39.9912 42.8635 40.9411C42.6927 42.3489 42.5902 43.7841 42.1801 45.1304C41.3396 47.9186 38.2643 49.2376 35.5922 48.0895C33.1388 47.0371 31.8882 43.7089 33.0431 41.2965C33.3916 40.5721 33.9999 40.3056 34.7311 40.4969C35.9886 40.8181 35.9407 41.8227 35.8245 42.8273Z" fill="#353534"/>
<path d="M62.9209 51.1375C61.3491 51.0487 59.6201 51.1649 58.9367 49.2855C58.4652 47.9802 59.6611 46.4699 61.7796 45.5883C63.6521 44.8093 65.5998 44.5222 67.5748 45.192C69.7139 45.9164 70.1034 47.6932 68.4018 49.183C66.8504 50.5361 64.9984 51.1785 62.9209 51.1444V51.1375Z" fill="#D94791"/>
<path d="M17.6118 50.4609C15.4181 50.3379 13.3543 49.8869 11.8235 48.1237C10.73 46.8662 10.9829 45.5746 12.4522 44.7682C14.7962 43.4766 19.5869 44.4812 21.1997 46.6066C22.2316 47.9665 21.8626 49.3812 20.2907 50.044C19.4433 50.3994 18.5481 50.5088 17.6187 50.4609H17.6118Z" fill="#D94791"/>
<path d="M21.7805 65.0515C18.6574 65.1608 15.5753 64.7781 12.5 64.3271C13.6003 63.7052 14.6937 64.3613 15.7803 64.4023C17.7895 64.4843 19.8123 64.5526 21.7805 65.0515Z" fill="#807D67"/>
<path d="M57.6655 115.575C57.071 115.548 56.4217 115.821 55.9229 115.261C56.5174 115.302 57.153 115.104 57.6655 115.575Z" fill="#F4D762"/>
<path d="M18.7682 113.444L21.8851 149.6C21.9715 150.602 20.5443 151.21 19.768 150.571C15.8067 147.312 9.15245 145.201 2.3667 153.081" stroke="#333333" stroke-width="6"/>
<path d="M24.9321 93.3973C24.9662 87.7729 26.6679 83.652 30.4061 80.3239C39.0305 72.6562 47.573 64.8996 56.1838 57.2182C57.7625 55.8104 59.6418 54.8331 61.6852 54.2317C65.4985 53.1041 69.3461 52.079 73.1321 50.8694C76.6858 49.735 80.1574 49.571 83.8478 50.4457C93.4563 52.7283 103.14 54.7306 112.776 56.8833C116.412 57.6966 119.207 59.8424 120.997 63.0407C128.351 76.1893 135.69 89.3447 142.866 102.596C145.941 108.268 145.688 114.091 142.278 119.64C137.788 126.952 133.189 134.21 128.706 141.529C126.259 145.527 122.829 147.844 118.154 148.479C112.079 149.306 106.031 150.311 99.9555 151.179C97.0578 151.595 94.1671 151.021 91.2831 150.809C85.3376 150.386 79.3989 149.778 73.4601 149.279C65.478 148.602 57.5028 147.912 49.5139 147.304C46.9511 147.112 44.4157 147.003 42.1195 145.643C38.4838 143.49 36.3106 140.265 35.2992 136.246C32.0257 123.31 28.8001 110.359 25.5539 97.4088C25.1644 95.8575 24.85 94.2994 24.9321 93.3904V93.3973Z" fill="#333333"/>
<path d="M35.2376 80.2555C39.707 76.2166 44.1559 72.1709 48.639 68.1526C51.7689 65.3438 54.9536 62.5965 58.0972 59.8014C60.742 57.4437 63.7421 56.8628 67.1317 57.7854C75.025 59.9313 82.925 62.0225 90.8251 64.141C91.0916 64.2162 91.3445 64.3597 91.6042 64.469C92.93 64.9543 93.8799 65.8837 94.7342 66.9771C97.8573 70.9545 99.5863 75.5879 100.98 80.3444C103.83 90.0418 104.78 99.9715 104.343 110.045C104.158 114.241 103.195 118.252 100.98 121.902C97.6318 127.424 92.52 129.57 86.3625 129.146C79.5354 128.681 72.7151 129.016 65.8948 128.866C62.9357 128.797 59.9834 128.64 57.0721 128.114C52.794 127.335 48.639 126.159 45.1263 123.405C41.19 120.316 38.7981 116.141 37.0486 111.576C34.2261 104.202 33.0712 96.5204 33.4197 88.6477C33.5496 85.7911 33.6111 82.8251 35.2307 80.2419L35.2376 80.2555Z" fill="#CBCBCB"/>
<path d="M35.2379 80.2555C34.1171 84.6224 33.5978 89.0577 33.878 93.5544C34.3905 101.66 35.9486 109.505 39.9807 116.681C43.8009 123.487 49.9993 126.583 57.4142 127.69C65.4919 128.9 73.6312 128.251 81.7431 128.36C84.6134 128.401 87.4427 128.907 90.3744 128.469C94.9805 127.793 98.2267 125.421 100.584 121.628C102.99 117.76 103.742 113.441 103.899 108.951C104.234 99.1925 103.209 89.5976 100.441 80.2282C98.8964 75.0002 96.9966 69.8884 93.0875 65.8427C92.616 65.3575 92.0966 64.9201 91.6046 64.4622C95.1514 65.3643 98.9511 65.5967 101.897 68.1526C104.145 70.1071 105.361 72.6493 105.853 75.5264C108.177 89.085 110.459 102.644 112.763 116.202C113.343 119.619 113.924 123.036 114.512 126.453C115.277 130.895 114.164 134.791 111.102 138.105C108.867 140.531 106.639 142.957 104.357 145.342C102.45 147.331 100.099 148.411 97.3178 148.192C86.8891 147.365 76.4605 146.49 66.0387 145.636C60.0316 145.144 54.0313 144.591 48.0243 144.16C43.056 143.805 40.0285 140.982 38.6344 136.499C37.2198 131.948 36.2288 127.266 35.0671 122.633C32.9212 114.091 30.83 105.534 28.6295 97.0056C26.9893 90.6568 28.5611 85.4493 33.7754 81.3968C34.2675 81.0141 34.7459 80.6246 35.2311 80.235L35.2379 80.2555Z" fill="#B2B2B2"/>
<path d="M70.4053 54.9562C72.5717 54.2933 74.7381 53.6098 76.9113 52.9743C78.4147 52.5369 79.9387 52.6804 81.4285 53.0084C91.495 55.2363 101.548 57.5052 111.614 59.7194C114.71 60.396 117.006 62.125 118.517 64.8244C122.897 72.6561 127.189 80.5357 131.542 88.388C134.098 93.0077 136.62 97.6548 139.292 102.206C142.661 107.954 142.757 113.51 139.073 119.189C134.624 126.043 130.298 132.986 126.034 139.957C124.155 143.032 121.64 144.891 118.045 145.37C114.573 145.828 111.122 146.395 107.158 146.989C109.181 144.768 110.78 142.807 112.591 141.064C117.225 136.622 118.298 131.182 117.314 125.127C115.94 116.694 114.525 108.268 113.097 99.8485C111.812 92.2628 110.405 84.6908 109.202 77.0914C108.648 73.6129 107.767 70.3394 105.559 67.517C103.851 65.3369 101.65 63.8745 99.0055 63.1569C89.8685 60.6899 80.7109 58.2775 71.5603 55.8377C71.3962 55.7967 71.2459 55.7011 71.0887 55.6327C70.9384 55.3252 70.1935 55.6122 70.4053 54.9493V54.9562Z" fill="#666666"/>
<path d="M47.0536 76.9616C47.1083 74.0913 48.3862 71.8498 50.6824 70.196C51.728 69.4442 52.9035 68.9659 54.1746 69.7244C55.391 70.4557 55.7259 71.6584 55.6439 72.9569C55.473 75.7041 54.3318 77.9867 52.0902 79.6337C50.9968 80.4401 49.7803 80.939 48.4409 80.2146C47.1493 79.5175 46.9921 78.2805 47.0467 76.9616H47.0536Z" fill="#333333"/>
<path d="M77.4648 86.0576C77.6357 83.4128 78.5309 81.1371 80.6016 79.4764C82.7065 77.7953 84.9139 78.547 85.4811 81.1713C86.103 84.0552 85.0711 86.5564 83.1712 88.6681C82.2008 89.7547 80.9023 90.4928 79.3647 89.8709C77.6425 89.1739 77.5605 87.5747 77.458 86.0576H77.4648Z" fill="#333333"/>
<path d="M86.438 90.0965C88.1124 89.994 89.5817 90.5612 90.8391 91.6C93.067 93.4315 92.739 96.1172 90.1215 97.3268C87.8458 98.3793 85.5769 98.1127 83.4858 96.8006C82.1531 95.9669 81.333 94.7367 81.6747 93.0761C82.0301 91.3471 83.3901 90.6363 84.9277 90.2195C85.4129 90.0896 85.9392 90.1306 86.4449 90.0965H86.438Z" fill="#D94691"/>
<path d="M59.8262 85.3537C59.7579 87.5474 61.0768 89.4063 63.004 89.8368C65.1977 90.322 67.1112 89.3926 67.9928 87.2672C68.437 86.2011 68.9701 85.299 70.2138 85.8116C71.5738 86.372 71.2116 87.5269 70.7879 88.5793C69.4621 91.8391 65.8811 93.657 62.4163 92.8437C58.9309 92.0237 56.4775 88.7707 56.7987 85.3059C56.9013 84.1988 56.8807 82.8183 58.5551 82.9208C60.1884 83.0165 59.915 84.274 59.8262 85.3537Z" fill="#343434"/>
<path d="M43.2265 86.085C41.477 86.126 40.2742 85.8116 39.2423 85.053C37.1579 83.5154 37.2877 81.2738 39.502 79.9822C41.1216 79.0391 44.3541 79.3808 45.7619 80.6451C46.6845 81.472 47.4294 82.4014 47.0535 83.7477C46.6913 85.0462 45.6184 85.5997 44.4498 85.9483C43.9167 86.1055 43.329 86.0781 43.2265 86.085Z" fill="#D94691"/>
<path d="M54.9883 153.156C53.3314 153.156 51.9883 154.5 51.9883 156.156C51.9883 157.813 53.3314 159.156 54.9883 159.156V153.156ZM80.3046 130.888L77.5326 132.035L80.3046 130.888ZM78.5502 130.713L81.0415 132.384L78.5502 130.713ZM90.5634 147.834L83.0767 129.741L77.5326 132.035L85.0193 150.128L90.5634 147.834ZM76.0589 129.042L59.2864 154.042L64.269 157.385L81.0415 132.384L76.0589 129.042ZM60.9472 153.156H54.9883V159.156H60.9472V153.156ZM59.2864 154.042C59.6578 153.489 60.2806 153.156 60.9472 153.156V159.156C62.2805 159.156 63.5262 158.492 64.269 157.385L59.2864 154.042ZM83.0767 129.741C81.8555 126.789 77.8383 126.389 76.0589 129.042L81.0415 132.384C80.1518 133.711 78.1432 133.51 77.5326 132.035L83.0767 129.741Z" fill="#333333"/>
<path d="M27.6528 151.106C25.996 151.106 24.6528 152.449 24.6528 154.106C24.6528 155.763 25.996 157.106 27.6528 157.106V151.106ZM52.9692 128.838L50.1971 129.985L52.9692 128.838ZM51.2147 128.663L53.706 130.334L51.2147 128.663ZM63.228 145.783L55.7412 127.69L50.1971 129.985L57.6839 148.078L63.228 145.783ZM48.7234 126.991L31.9509 151.992L36.9335 155.335L53.706 130.334L48.7234 126.991ZM33.6118 151.106H27.6528V157.106H33.6118V151.106ZM31.9509 151.992C32.3223 151.438 32.9452 151.106 33.6118 151.106V157.106C34.9451 157.106 36.1907 156.442 36.9335 155.335L31.9509 151.992ZM55.7412 127.69C54.52 124.739 50.5029 124.339 48.7234 126.991L53.706 130.334C52.8163 131.66 50.8077 131.46 50.1971 129.985L55.7412 127.69Z" fill="#333333"/>
</svg>
